<?xml version="1.0" encoding="utf-8"?>
<!-- Generator: Adobe Illustrator 23.0.3, SVG Export Plug-In . SVG Version: 6.00 Build 0)  -->
<!DOCTYPE svg PUBLIC "-//W3C//DTD SVG 1.1//EN" "http://www.w3.org/Graphics/SVG/1.1/DTD/svg11.dtd" [
	<!ENTITY ns_extend "http://ns.adobe.com/Extensibility/1.0/">
	<!ENTITY ns_ai "http://ns.adobe.com/AdobeIllustrator/10.0/">
	<!ENTITY ns_graphs "http://ns.adobe.com/Graphs/1.0/">
	<!ENTITY ns_vars "http://ns.adobe.com/Variables/1.0/">
	<!ENTITY ns_imrep "http://ns.adobe.com/ImageReplacement/1.0/">
	<!ENTITY ns_sfw "http://ns.adobe.com/SaveForWeb/1.0/">
	<!ENTITY ns_custom "http://ns.adobe.com/GenericCustomNamespace/1.0/">
	<!ENTITY ns_adobe_xpath "http://ns.adobe.com/XPath/1.0/">
]>
<svg version="1.1" id="Layer_1" xmlns:x="&ns_extend;" xmlns:i="&ns_ai;" xmlns:graph="&ns_graphs;"
	 xmlns="http://www.w3.org/2000/svg" xmlns:xlink="http://www.w3.org/1999/xlink" x="0px" y="0px" viewBox="0 0 322 280"
	 style="enable-background:new 0 0 322 280;" xml:space="preserve">
<style type="text/css">
	.st0{fill:#FEFFFF;}
	.st1{fill:#1995AD;}
	.st2{fill:#47AABD;}
	.st3{fill:#0A8EA7;}
	.st4{fill:#269AB1;}
	.st5{fill:#00819D;}
	.st6{fill:#299CB2;}
	.st7{fill:#F4FAFB;}
</style>
<metadata>
	<sfw  xmlns="&ns_sfw;">
		<slices></slices>
		<sliceSourceBounds  bottomLeftOrigin="true" height="307.1" width="436" x="80.6" y="53.9"></sliceSourceBounds>
	</sfw>
</metadata>
<path class="st0" d="M-58.4-40.9 M377.6,81.1 M264.4,238c-8.6,0-17.2-0.1-25.9,0c-1.5,0-3.1,0.7-5.2,1.4
	c-7.9,8.6-15.8,17.3-24.6,26.8c10.2,0,19.2,0,28.1,0c8.2,0,15.4-2.7,21.1-8.7C263,252.1,266.8,246.1,264.4,238 M87.3,13.9
	c1.6,15.3,13,26,28.2,26.2c16.7,0.1,33.3,0.2,50,0c15.2-0.1,27.6-12.4,27.4-27.8c-0.5-0.1-1-0.2-1.5-0.2c-33.7,0-67.5,0-101.2,0
	C89.3,12.1,88.4,12.8,87.3,13.9 M43.5,154c-14.7,3.1-24.4,11.9-28.3,26.3c-4,14.8,1.3,27.1,12.1,38c34.3,38.3,76.9,53.5,127.5,45.6
	c13.1-2.1,25.8-6.1,38.1-13c5-2.9,10.2-5.6,14.9-8.9c64.9-44.1,78.4-136,29-196.9c-1.2-1.5-2.4-2.9-4-5c18.1,0,35.3,0.2,52.4-0.1
	c12.2-0.2,21.4-5.8,26.3-17.3c1.3-3.2,1.1-7,0.7-10.7c-29.3,0-58.5,0-87.8,0c-1.5,0-3.1,0.6-5.2,1.2c-6.3,7.1-12.7,14.1-18.9,21.3
	c-1.3,1.5-2.1,3.8-2.1,5.7c-0.2,15.3,0,30.7-0.1,46c-0.1,17.4-6.2,32.5-17.9,45.3c-12.3,13.4-27.9,20-46.6,21.7
	c-26.7,0-53.3-0.1-80,0C50.6,153.3,47.5,153.8,43.5,154 M71.5,102.4c1,1.7,2,3.5,3,5.2c3.4-2.4,4.9-3.8,5.8-5.6
	c1.1-2.2,2.9-5.1,2.3-7c-0.8-2.3-3.6-4.9-6-5.5c-1.9-0.5-5.1,1.2-6.6,3C67.3,95.5,68.4,99,71.5,102.4"/>
<path class="st1" d="M313.3,12.3c-0.5,3.5-0.3,7.4-1.6,10.5c-4.8,11.4-14.1,17-26.3,17.3c-17.1,0.3-34.3,0.1-52.4,0.1
	c1.6,2,2.8,3.5,4,5c49.4,61,35.9,152.8-29,196.9c-4.8,3.2-9.9,5.9-15.3,8.6c-10.3-22.1-28.3-33.4-51.4-34.2
	c-36.4-1.2-72.9-0.4-109.4-0.3c-1.6,0-3.2,1-4.8,1.6c-10.6-10.4-15.9-22.6-11.9-37.5c3.9-14.5,13.6-23.2,29-26
	c1.2,0.5,1.6,0.8,2.1,0.8c28.2,0,56.3,0.1,84.5,0c1.3,0,2.6-1,3.8-1.6c17.8-2,33.4-8.5,45.7-21.9c11.7-12.8,17.8-27.9,17.9-45.3
	c0.1-15.3,0-30.7,0.1-46c0-1.9,0.9-4.2,2.1-5.7c6.2-7.2,12.6-14.2,19.7-21.4c30.2-0.1,59.5-0.1,88.9-0.1
	C310.5,13.1,311.9,12.6,313.3,12.3 M82.5,188.7c-0.7-2.5-0.7-5.7-2.2-7.4c-1.2-1.4-5-2.2-6.5-1.3c-2.2,1.3-4.9,4.4-4.7,6.5
	c0.2,2.4,2.8,5.5,5.2,6.7C77.7,195,80.6,192.7,82.5,188.7z"/>
<path class="st2" d="M27.2,218c1.5-0.8,3.1-1.9,4.7-1.9c36.5-0.1,73-0.9,109.4,0.3c23.1,0.8,41,12,51,34.3
	c-11.6,7.1-24.3,11.1-37.4,13.2C104.2,271.8,61.6,256.6,27.2,218z"/>
<path class="st2" d="M193.3,13.1c-0.2,14.6-12.6,26.9-27.8,27c-16.7,0.2-33.3,0.1-50,0C100.3,40,88.9,29.3,87.8,13.5
	C123.3,13.1,158.3,13.1,193.3,13.1z"/>
<path class="st2" d="M265.3,238.2c1.5,7.9-2.3,14-7.3,19.3c-5.6,6-12.9,8.6-21.1,8.7c-8.9,0-17.9,0-28.1,0
	c8.7-9.5,16.6-18.2,25.3-26.9c8.2-0.1,15.6,0,23-0.1C259.9,239,262.6,238.5,265.3,238.2z"/>
<path class="st2" d="M71.3,102.1c-2.9-3.2-3.9-6.6-1.3-9.6c1.5-1.7,4.8-3.5,6.6-3c2.4,0.6,5.1,3.2,6,5.5c0.7,1.8-1.1,4.8-2.3,7
	c-0.9,1.7-2.4,3.1-5.8,5.6C73.5,105.8,72.5,104.1,71.3,102.1z"/>
<path class="st3" d="M134.2,153.4c-0.8,0.6-2.1,1.6-3.4,1.7c-28.2,0.1-56.3,0.1-84.5,0c-0.5,0-0.9-0.3-1.7-0.7
	c2.9-0.6,6-1.1,9.1-1.1C80.4,153.3,107.1,153.3,134.2,153.4z"/>
<path class="st4" d="M193.1,12.7c-34.8,0.4-69.8,0.4-105.3,0.4c0.5-0.4,1.4-1,2.4-1c33.7,0,67.5,0,101.2,0
	C192,12.1,192.5,12.2,193.1,12.7z"/>
<path class="st5" d="M312.8,12.2c-1,0.4-2.4,0.9-3.8,0.9c-29.4,0-58.7,0-88.6,0c1-0.4,2.6-1,4.1-1C253.9,12,283.1,12.1,312.8,12.2z"
	/>
<path class="st6" d="M264.9,238.1c-2.2,0.4-4.9,1-7.7,1c-7.4,0.1-14.8,0-22.8,0c1-0.4,2.6-1.1,4.1-1.1
	C247.2,237.9,255.8,238,264.9,238.1z"/>
<path class="st7" d="M82.4,189.1c-1.9,3.7-4.8,5.9-8.2,4.2c-2.4-1.2-5-4.3-5.2-6.7c-0.2-2.1,2.5-5.3,4.7-6.5
	c1.5-0.9,5.3-0.1,6.5,1.3C81.8,183,81.9,186.2,82.4,189.1z"/>
</svg>
