<svg version="1.1" id="Layer_1" xmlns="http://www.w3.org/2000/svg" xmlns:xlink="http://www.w3.org/1999/xlink" x="0px" y="0px"
	 width="100%" viewBox="0 0 436 362" enable-background="new 0 0 436 362" xml:space="preserve">
<path fill="#FEFFFF" opacity="1.000000" stroke="none" 
	d="
M437.000000,123.000000 
	C437.000000,203.333328 437.000000,283.166656 437.000000,363.000000 
	C291.666656,363.000000 146.333328,363.000000 1.000000,363.000000 
	C1.000000,242.333328 1.000000,121.666664 1.000000,1.000000 
	C146.333328,1.000000 291.666656,1.000000 437.000000,1.000000 
	C437.000000,41.500000 437.000000,82.000000 437.000000,123.000000 
M368.628967,356.356812 
	C368.628967,356.356812 368.667206,356.520813 368.948547,357.139404 
	C372.492188,358.661194 372.471771,356.022614 372.505402,353.898407 
	C372.583618,348.960297 372.461365,344.018982 372.800690,338.408905 
	C374.802155,333.485718 378.248749,331.143982 382.592682,332.081207 
	C387.411194,333.120880 387.844727,337.036896 387.914490,340.984467 
	C387.993652,345.463470 387.790436,349.952698 388.033020,354.419952 
	C388.095245,355.565521 389.373779,356.645081 390.093506,357.754974 
	C390.940735,356.725037 392.514893,355.696625 392.517029,354.664948 
	C392.530640,348.044312 392.658203,341.365845 391.843597,334.818970 
	C391.130920,329.091064 386.904236,327.058350 381.016663,328.548370 
	C378.342468,329.225159 375.651245,329.834717 372.757263,330.524933 
	C372.757263,326.958008 372.673157,323.311493 372.784698,319.670990 
	C372.869324,316.908539 371.874115,315.552948 368.449799,316.039703 
	C368.338104,316.348389 368.226410,316.657074 367.955078,317.895508 
	C368.006073,330.274078 368.057037,342.652679 368.045319,355.601562 
	C368.284180,355.818848 368.523071,356.036163 368.628967,356.356812 
M151.598343,356.534485 
	C151.598343,356.534485 151.563110,356.280975 152.169144,355.877808 
	C152.069138,346.939087 151.969131,338.000336 151.589691,328.390320 
	C149.939362,328.851440 148.289032,329.312561 145.764572,330.017914 
	C139.503006,325.777283 133.197433,325.945984 128.104416,331.265106 
	C122.746147,336.861328 122.239151,347.051208 127.219208,353.207245 
	C132.815308,360.124786 140.142685,359.422699 147.056870,354.935333 
	C147.698151,355.647583 148.334564,356.354401 149.297470,357.512390 
	C150.019592,357.259003 150.741730,357.005615 151.598343,356.534485 
M188.544098,338.806488 
	C188.619751,339.505402 188.695404,340.204346 188.650040,341.503265 
	C188.690460,341.703247 188.730896,341.903259 188.550858,342.878204 
	C188.624954,344.209534 188.699051,345.540894 188.619720,347.717285 
	C188.670990,348.857422 188.722260,349.997559 188.550644,351.926422 
	C188.657883,353.273590 188.765121,354.620728 188.962418,356.593872 
	C189.984375,356.746033 191.006332,356.898224 192.707458,356.695496 
	C192.809433,349.914612 193.368286,343.101532 192.893082,336.361359 
	C192.348251,328.633789 185.525482,324.997864 178.370636,328.104401 
	C176.599319,328.873474 175.002060,330.043427 174.027023,330.616394 
	C172.314011,329.588531 171.094269,328.661743 169.718704,328.179138 
	C169.405823,328.069366 168.037735,329.490295 168.027847,330.218597 
	C167.907089,339.098724 167.949371,347.981079 167.949371,356.862854 
	C168.601349,357.112518 169.253311,357.362152 169.905289,357.611786 
	C170.853333,356.229767 172.487549,354.909668 172.618896,353.453949 
	C172.991058,349.329010 172.879700,345.143311 172.712921,340.991425 
	C172.526306,336.345947 174.418671,333.235291 178.941452,332.093964 
	C183.339600,330.984039 186.813202,332.209991 188.541473,337.455872 
	C188.607758,337.678314 188.674042,337.900787 188.544098,338.806488 
M324.059753,235.844879 
	C315.437897,235.833450 306.815460,235.768158 298.194733,235.860672 
	C296.656677,235.877151 295.125671,236.547623 293.034302,237.230087 
	C285.109497,245.876633 277.184662,254.523163 268.474213,264.026886 
	C278.700836,264.026886 287.632751,264.054779 296.564392,264.018677 
	C304.753937,263.985596 312.010956,261.346405 317.650299,255.354294 
	C322.674011,250.016312 326.432739,243.962036 324.059753,235.844879 
M146.968567,11.810567 
	C148.544678,27.137907 159.961609,37.850044 175.213745,37.986187 
	C191.865173,38.134827 208.520050,38.164589 225.171143,38.006958 
	C240.380371,37.862976 252.794724,25.638603 252.616058,10.193816 
	C252.128006,10.107555 251.639999,9.946014 251.151917,9.945774 
	C217.407806,9.929201 183.663696,9.916763 149.919662,9.965579 
	C148.962494,9.966964 148.006256,10.632374 146.968567,11.810567 
M103.178810,151.833252 
	C88.452484,154.920807 78.812119,163.715515 74.895348,178.166534 
	C70.870857,193.014954 76.177330,205.251877 87.018852,216.209763 
	C121.282257,254.500565 163.887802,269.679199 214.567383,261.770721 
	C227.704926,259.720642 240.379547,255.699356 252.691269,248.749832 
	C257.676453,245.812836 262.844360,243.144592 267.619263,239.898254 
	C332.514038,195.777878 346.021362,103.937637 296.650452,42.983799 
	C295.464935,41.520145 294.297272,40.042030 292.682037,38.021107 
	C310.809753,38.021107 327.953949,38.255028 345.088196,37.941898 
	C357.257050,37.719517 366.506683,32.106525 371.347595,20.669832 
	C372.689453,17.499678 372.463684,13.665981 372.040192,9.957868 
	C342.783234,9.948413 313.526215,9.924082 284.269348,9.971330 
	C282.729034,9.973816 281.189667,10.583233 279.064697,11.188066 
	C272.742279,18.263992 266.327118,25.260883 260.174652,32.481602 
	C258.923157,33.950371 258.059906,36.255054 258.037659,38.186119 
	C257.861359,53.512131 258.010651,68.841515 257.905365,84.168808 
	C257.785919,101.559532 251.690750,116.672485 239.956146,129.459015 
	C227.676682,142.839249 212.069244,149.414230 193.365463,151.179611 
	C166.709641,151.167038 140.053772,151.128235 113.398064,151.176880 
	C110.255707,151.182617 107.114220,151.668518 103.178810,151.833252 
M104.340485,328.928223 
	C98.527748,325.537018 93.248230,327.407532 87.779083,331.316132 
	C87.779083,326.940063 88.034866,323.276306 87.661560,319.677765 
	C87.496925,318.090729 86.054832,316.636139 85.192719,315.121429 
	C84.445068,316.589111 83.072807,318.046814 83.049072,319.526093 
	C82.867264,330.854645 82.871552,342.188568 83.038330,353.517548 
	C83.060539,355.025818 84.321045,356.515839 85.008102,358.014313 
	C86.245766,356.964630 87.483421,355.914917 88.794540,354.802948 
	C96.782433,361.708405 106.249603,358.071716 110.023682,350.308014 
	C113.555016,343.043610 111.589897,334.759033 104.340485,328.928223 
M31.546461,323.878967 
	C31.546549,329.697266 31.599342,335.516144 31.533606,341.333679 
	C31.448235,348.888794 27.268986,353.468781 20.641178,353.403442 
	C14.216710,353.340088 10.210855,348.906067 10.093483,341.477203 
	C9.985826,334.663177 10.178942,327.842529 9.957294,321.033966 
	C9.915644,319.754578 8.544563,318.518433 7.786957,317.262329 
	C6.890324,318.464478 5.252582,319.645721 5.218002,320.872192 
	C5.002604,328.511627 4.771649,336.185791 5.272012,343.800751 
	C5.813040,352.034576 11.726913,357.667053 19.259254,358.117981 
	C27.438889,358.607666 34.702408,354.193054 35.543766,346.633636 
	C36.530918,337.764282 36.026245,328.722748 35.994160,319.756500 
	C35.991245,318.941559 34.718277,318.131134 34.035110,317.318634 
	C33.246433,318.046875 32.132725,318.639069 31.755829,319.539612 
	C31.336246,320.542145 31.587370,321.825348 31.546461,323.878967 
M242.390854,351.378082 
	C235.267700,345.779053 233.352951,336.276215 237.820953,328.697845 
	C241.734787,322.059418 249.854660,319.916901 258.000946,323.122894 
	C259.375641,323.663910 261.159393,323.165466 262.754150,323.147278 
	C261.759979,321.739807 261.079254,319.727234 259.720581,319.023560 
	C251.217972,314.619873 240.543594,317.175232 234.639847,324.740906 
	C228.867584,332.138062 229.100677,344.307404 235.151932,351.475037 
	C240.764038,358.122528 252.471542,360.410797 260.264893,356.120056 
	C261.455994,355.464294 261.933044,353.511597 262.740356,352.158752 
	C261.296967,352.086395 259.653107,351.527802 258.444855,352.025879 
	C253.214432,354.181885 248.131042,354.366333 242.390854,351.378082 
M407.110962,347.239594 
	C411.094177,357.594910 421.447754,361.656189 429.859375,355.927795 
	C431.318634,354.934052 431.917694,352.677246 432.914062,351.003815 
	C431.275757,351.426483 429.464630,351.537628 428.032562,352.332092 
	C424.201477,354.457489 420.409332,354.684235 416.632172,352.561035 
	C413.439087,350.766205 411.411194,348.158813 411.956757,343.839142 
	C418.138947,343.839142 424.118469,343.826447 430.097870,343.845062 
	C432.683075,343.853119 434.813507,343.402283 434.681458,340.089661 
	C434.362396,332.087555 425.986420,325.699402 418.147858,327.500336 
	C409.973480,329.378448 406.125305,335.931213 407.110962,347.239594 
M325.063477,337.719086 
	C321.112671,328.905060 314.690979,325.485504 306.532166,327.851257 
	C298.760651,330.104645 294.620544,337.433075 296.094360,346.327240 
	C297.429382,354.383789 305.169556,359.439026 314.010773,358.028656 
	C322.149384,356.730377 327.081268,348.169403 325.063477,337.719086 
M350.025116,357.837677 
	C351.122284,356.838654 352.219452,355.839600 353.316650,354.840576 
	C352.252563,354.384888 351.056000,354.105316 350.157654,353.429352 
	C349.012939,352.568024 347.293518,351.427399 347.238373,350.335571 
	C346.947296,344.573669 347.101898,338.789276 347.101898,334.193298 
	C350.143738,332.589752 352.287384,331.459656 354.431061,330.329590 
	C352.141693,329.208496 349.852325,328.087402 348.388824,327.370728 
	C346.975830,324.731476 345.793121,322.522339 344.610413,320.313232 
	C343.452423,322.595367 342.294464,324.877502 341.059418,327.311554 
	C339.910156,328.124542 338.352386,329.226532 336.794617,330.328552 
	C338.365051,331.472473 339.935455,332.616394 342.190674,334.259094 
	C342.190674,338.967468 342.166016,344.613647 342.198364,350.259521 
	C342.225098,354.925140 344.046204,357.987488 350.025116,357.837677 
M52.405270,343.486572 
	C52.398651,346.809998 52.151608,350.158356 52.492947,353.445648 
	C52.649498,354.953339 53.962032,356.341003 54.750351,357.783081 
	C55.522362,356.386017 56.847397,355.032013 56.960209,353.583618 
	C57.269081,349.618042 56.925552,345.606476 57.099537,341.624451 
	C57.415550,334.391876 60.180679,331.953308 67.313118,331.761169 
	C68.420471,331.731323 69.486359,330.161926 71.188278,328.817017 
	C64.572586,326.673401 60.473263,328.328339 57.881256,332.203247 
	C56.713593,330.731842 55.624447,329.359375 54.535290,327.986908 
	C53.817303,329.668030 52.668079,331.301483 52.475784,333.040710 
	C52.130852,336.160553 52.361179,339.344025 52.405270,343.486572 
M131.162949,100.266571 
	C132.157913,101.993042 133.152878,103.719513 134.147842,105.445984 
	C137.534683,102.997238 139.073990,101.602493 139.959534,99.872993 
	C141.095963,97.653481 142.895935,94.746223 142.244980,92.897682 
	C141.421188,90.558395 138.671585,88.017738 136.275574,87.392830 
	C134.393250,86.901894 131.157806,88.633354 129.641220,90.359589 
	C126.968559,93.401695 128.038422,96.841011 131.162949,100.266571 
M276.940399,318.816315 
	C276.939941,330.273560 276.846771,341.732422 277.048096,353.186127 
	C277.075439,354.741394 278.577667,356.270782 279.397003,357.812134 
	C280.194763,356.219543 281.436981,354.693451 281.687469,353.018982 
	C282.076202,350.420471 281.788879,347.720856 281.788849,345.064117 
	C281.788666,335.475830 281.788757,325.887543 281.788757,314.593170 
	C279.409943,316.218353 278.187103,317.053772 276.940399,318.816315 
z"/>
<path fill="#1995AD" opacity="1.000000" stroke="none" 
	d="
M372.957123,10.136723 
	C372.463684,13.665981 372.689453,17.499678 371.347595,20.669832 
	C366.506683,32.106525 357.257050,37.719517 345.088196,37.941898 
	C327.953949,38.255028 310.809753,38.021107 292.682037,38.021107 
	C294.297272,40.042030 295.464935,41.520145 296.650452,42.983799 
	C346.021362,103.937637 332.514038,195.777878 267.619263,239.898254 
	C262.844360,243.144592 257.676453,245.812836 252.308899,248.492752 
	C241.965347,226.354614 224.006241,215.076950 200.939331,214.320190 
	C164.516861,213.125244 128.026871,213.965546 91.565697,214.047882 
	C89.970306,214.051483 88.377243,215.083984 86.783096,215.637207 
	C76.177330,205.251877 70.870857,193.014954 74.895348,178.166534 
	C78.812119,163.715515 88.452484,154.920807 103.860153,152.195099 
	C105.015633,152.694244 105.489647,152.951294 105.963913,152.951767 
	C134.119705,152.980377 162.275574,153.009186 190.431122,152.928284 
	C191.714905,152.924606 192.995804,151.913986 194.278061,151.372360 
	C212.069244,149.414230 227.676682,142.839249 239.956146,129.459015 
	C251.690750,116.672485 257.785919,101.559532 257.905365,84.168808 
	C258.010651,68.841515 257.861359,53.512131 258.037659,38.186119 
	C258.059906,36.255054 258.923157,33.950371 260.174652,32.481602 
	C266.327118,25.260883 272.742279,18.263992 279.849884,11.076331 
	C310.000092,10.976437 339.365112,11.000239 368.730072,10.963373 
	C370.139435,10.961604 371.548126,10.424518 372.957123,10.136723 
M142.181534,186.586472 
	C141.505814,184.046844 141.501648,180.908829 139.941177,179.157532 
	C138.699829,177.764374 134.943039,176.991364 133.404480,177.870590 
	C131.189621,179.136276 128.542511,182.262741 128.709396,184.388626 
	C128.899872,186.815063 131.528793,189.895905 133.905273,191.102890 
	C137.307022,192.830582 140.212357,190.607849 142.181534,186.586472 
z"/>
<path fill="#47AABD" opacity="1.000000" stroke="none" 
	d="
M86.900970,215.923492 
	C88.377243,215.083984 89.970306,214.051483 91.565697,214.047882 
	C128.026871,213.965546 164.516861,213.125244 200.939331,214.320190 
	C224.006241,215.076950 241.965347,226.354614 251.969177,248.591309 
	C240.379547,255.699356 227.704926,259.720642 214.567383,261.770721 
	C163.887802,269.679199 121.282257,254.500565 86.900970,215.923492 
z"/>
<path fill="#47AABD" opacity="1.000000" stroke="none" 
	d="
M252.968613,10.991527 
	C252.794724,25.638603 240.380371,37.862976 225.171143,38.006958 
	C208.520050,38.164589 191.865173,38.134827 175.213745,37.986187 
	C159.961609,37.850044 148.544678,27.137907 147.474121,11.414597 
	C182.975998,11.009592 217.972305,11.000559 252.968613,10.991527 
z"/>
<path fill="#47AABD" opacity="1.000000" stroke="none" 
	d="
M324.973724,236.052612 
	C326.432739,243.962036 322.674011,250.016312 317.650299,255.354294 
	C312.010956,261.346405 304.753937,263.985596 296.564392,264.018677 
	C287.632751,264.054779 278.700836,264.026886 268.474213,264.026886 
	C277.184662,254.523163 285.109497,245.876633 293.813660,237.096100 
	C302.015381,236.974121 309.439026,237.069748 316.859406,236.954208 
	C319.568207,236.912033 322.269165,236.367798 324.973724,236.052612 
z"/>
<path fill="#2198AF" opacity="1.000000" stroke="none" 
	d="
M104.666275,329.120056 
	C111.589897,334.759033 113.555016,343.043610 110.023682,350.308014 
	C106.249603,358.071716 96.782433,361.708405 88.794540,354.802948 
	C87.483421,355.914917 86.245766,356.964630 85.008102,358.014313 
	C84.321045,356.515839 83.060539,355.025818 83.038330,353.517548 
	C82.871552,342.188568 82.867264,330.854645 83.049072,319.526093 
	C83.072807,318.046814 84.445068,316.589111 85.192719,315.121429 
	C86.054832,316.636139 87.496925,318.090729 87.661560,319.677765 
	C88.034866,323.276306 87.779083,326.940063 87.779083,331.316132 
	C93.248230,327.407532 98.527748,325.537018 104.666275,329.120056 
M106.946922,343.335846 
	C106.457703,341.117218 106.675201,338.187866 105.319901,336.840271 
	C103.074303,334.607361 99.846893,332.177979 96.975769,332.105591 
	C94.337799,332.039124 90.710251,334.366486 89.147339,336.720520 
	C86.466934,340.757721 86.439095,346.068359 89.701210,349.714783 
	C91.774544,352.032379 95.945267,353.816925 99.013229,353.595306 
	C103.957184,353.238068 106.266327,349.007782 106.946922,343.335846 
z"/>
<path fill="#1C95AD" opacity="1.000000" stroke="none" 
	d="
M31.546490,323.432678 
	C31.587370,321.825348 31.336246,320.542145 31.755829,319.539612 
	C32.132725,318.639069 33.246433,318.046875 34.035103,317.318634 
	C34.718277,318.131134 35.991245,318.941559 35.994160,319.756500 
	C36.026245,328.722748 36.530918,337.764282 35.543766,346.633636 
	C34.702408,354.193054 27.438889,358.607666 19.259254,358.117981 
	C11.726913,357.667053 5.813040,352.034576 5.272012,343.800751 
	C4.771649,336.185791 5.002604,328.511627 5.218002,320.872192 
	C5.252582,319.645721 6.890324,318.464478 7.786957,317.262329 
	C8.544563,318.518433 9.915644,319.754578 9.957294,321.033966 
	C10.178942,327.842529 9.985826,334.663177 10.093483,341.477203 
	C10.210855,348.906067 14.216710,353.340088 20.641178,353.403442 
	C27.268986,353.468781 31.448235,348.888794 31.533606,341.333679 
	C31.599342,335.516144 31.546549,329.697266 31.546490,323.432678 
z"/>
<path fill="#1C95AD" opacity="1.000000" stroke="none" 
	d="
M242.707489,351.593292 
	C248.131042,354.366333 253.214432,354.181885 258.444855,352.025879 
	C259.653107,351.527802 261.296967,352.086395 262.740356,352.158752 
	C261.933044,353.511597 261.455994,355.464294 260.264893,356.120056 
	C252.471542,360.410797 240.764038,358.122528 235.151932,351.475037 
	C229.100677,344.307404 228.867584,332.138062 234.639847,324.740906 
	C240.543594,317.175232 251.217972,314.619873 259.720581,319.023560 
	C261.079254,319.727234 261.759979,321.739807 262.754150,323.147278 
	C261.159393,323.165466 259.375641,323.663910 258.000946,323.122894 
	C249.854660,319.916901 241.734787,322.059418 237.820953,328.697845 
	C233.352951,336.276215 235.267700,345.779053 242.707489,351.593292 
z"/>
<path fill="#2198AF" opacity="1.000000" stroke="none" 
	d="
M407.058075,346.857056 
	C406.125305,335.931213 409.973480,329.378448 418.147858,327.500336 
	C425.986420,325.699402 434.362396,332.087555 434.681458,340.089661 
	C434.813507,343.402283 432.683075,343.853119 430.097870,343.845062 
	C424.118469,343.826447 418.138947,343.839142 411.956757,343.839142 
	C411.411194,348.158813 413.439087,350.766205 416.632172,352.561035 
	C420.409332,354.684235 424.201477,354.457489 428.032562,352.332092 
	C429.464630,351.537628 431.275757,351.426483 432.914062,351.003815 
	C431.917694,352.677246 431.318634,354.934052 429.859375,355.927795 
	C421.447754,361.656189 411.094177,357.594910 407.058075,346.857056 
M429.670593,338.807526 
	C427.317261,332.874359 423.644684,330.574249 418.247040,332.039154 
	C414.187317,333.140869 411.767609,335.729553 412.079803,341.223785 
	C418.084290,340.639954 423.749481,340.089111 429.670593,338.807526 
z"/>
<path fill="#1F97AE" opacity="1.000000" stroke="none" 
	d="
M325.163635,338.107178 
	C327.081268,348.169403 322.149384,356.730377 314.010773,358.028656 
	C305.169556,359.439026 297.429382,354.383789 296.094360,346.327240 
	C294.620544,337.433075 298.760651,330.104645 306.532166,327.851257 
	C314.690979,325.485504 321.112671,328.905060 325.163635,338.107178 
M313.024506,331.941559 
	C305.019623,331.513672 300.411011,335.603119 300.563721,342.998657 
	C300.702209,349.705597 305.256622,354.326538 311.388550,353.981598 
	C317.622314,353.630890 321.936890,347.770355 320.912903,340.812378 
	C320.289551,336.576660 318.032349,333.491943 313.024506,331.941559 
z"/>
<path fill="#1F97AE" opacity="1.000000" stroke="none" 
	d="
M148.970963,357.061249 
	C148.334564,356.354401 147.698151,355.647583 147.056870,354.935333 
	C140.142685,359.422699 132.815308,360.124786 127.219208,353.207245 
	C122.239151,347.051208 122.746147,336.861328 128.104416,331.265106 
	C133.197433,325.945984 139.503006,325.777283 145.764572,330.017914 
	C148.289032,329.312561 149.939362,328.851440 151.453796,329.030457 
	C151.399643,338.540710 151.481384,347.410858 151.563110,356.280975 
	C151.563110,356.280975 151.598343,356.534485 151.219910,356.417938 
	C150.217987,356.554688 149.594467,356.807953 148.970963,357.061249 
M137.599548,331.754120 
	C128.954010,333.366150 125.348831,343.678650 131.031128,350.542877 
	C134.768463,355.057617 140.900635,355.290680 144.900406,350.954834 
	C148.255814,347.317596 148.686539,342.975220 147.236160,338.452911 
	C145.892075,334.261993 142.983337,331.863251 137.599548,331.754120 
z"/>
<path fill="#269AB1" opacity="1.000000" stroke="none" 
	d="
M368.108032,355.031250 
	C368.057037,342.652679 368.006073,330.274078 368.235718,317.346710 
	C368.765381,316.619720 368.918945,316.380280 368.977020,316.079590 
	C371.874115,315.552948 372.869324,316.908539 372.784698,319.670990 
	C372.673157,323.311493 372.757263,326.958008 372.757263,330.524933 
	C375.651245,329.834717 378.342468,329.225159 381.016663,328.548370 
	C386.904236,327.058350 391.130920,329.091064 391.843597,334.818970 
	C392.658203,341.365845 392.530640,348.044312 392.517029,354.664948 
	C392.514893,355.696625 390.940735,356.725037 390.093506,357.754974 
	C389.373779,356.645081 388.095245,355.565521 388.033020,354.419952 
	C387.790436,349.952698 387.993652,345.463470 387.914490,340.984467 
	C387.844727,337.036896 387.411194,333.120880 382.592682,332.081207 
	C378.248749,331.143982 374.802155,333.485718 372.269135,338.886475 
	C371.486511,343.448334 371.427734,347.557983 370.893341,351.604858 
	C370.667908,353.311737 369.439636,354.886169 368.667236,356.520813 
	C368.667206,356.520813 368.628967,356.356812 368.706940,356.048309 
	C368.559296,355.503601 368.333679,355.267426 368.108032,355.031250 
z"/>
<path fill="#299CB2" opacity="1.000000" stroke="none" 
	d="
M188.773132,346.872223 
	C188.699051,345.540894 188.624954,344.209534 188.871552,342.381531 
	C189.051849,341.557648 188.911453,341.230469 188.771057,340.903259 
	C188.695404,340.204346 188.619751,339.505402 188.865631,338.331573 
	C188.981766,337.491150 188.776352,337.125641 188.570938,336.760132 
	C186.813202,332.209991 183.339600,330.984039 178.941452,332.093964 
	C174.418671,333.235291 172.526306,336.345947 172.712921,340.991425 
	C172.879700,345.143311 172.991058,349.329010 172.618896,353.453949 
	C172.487549,354.909668 170.853333,356.229767 169.905289,357.611786 
	C169.253311,357.362152 168.601349,357.112518 167.949371,356.862854 
	C167.949371,347.981079 167.907089,339.098724 168.027847,330.218597 
	C168.037735,329.490295 169.405823,328.069366 169.718704,328.179138 
	C171.094269,328.661743 172.314011,329.588531 174.027023,330.616394 
	C175.002060,330.043427 176.599319,328.873474 178.370636,328.104401 
	C185.525482,324.997864 192.348251,328.633789 192.893082,336.361359 
	C193.368286,343.101532 192.809433,349.914612 192.157684,356.589355 
	C190.696060,356.311432 189.784210,356.139679 188.872360,355.967896 
	C188.765121,354.620728 188.657883,353.273590 188.972961,351.322998 
	C189.187881,349.437134 188.980499,348.154694 188.773132,346.872223 
z"/>
<path fill="#269AB1" opacity="1.000000" stroke="none" 
	d="
M349.641846,357.856201 
	C344.046204,357.987488 342.225098,354.925140 342.198364,350.259521 
	C342.166016,344.613647 342.190674,338.967468 342.190674,334.259094 
	C339.935455,332.616394 338.365051,331.472473 336.794617,330.328552 
	C338.352386,329.226532 339.910156,328.124542 341.059418,327.311554 
	C342.294464,324.877502 343.452423,322.595367 344.610413,320.313232 
	C345.793121,322.522339 346.975830,324.731476 348.388824,327.370728 
	C349.852325,328.087402 352.141693,329.208496 354.431061,330.329590 
	C352.287384,331.459656 350.143738,332.589752 347.101898,334.193298 
	C347.101898,338.789276 346.947296,344.573669 347.238373,350.335571 
	C347.293518,351.427399 349.012939,352.568024 350.157654,353.429352 
	C351.056000,354.105316 352.252563,354.384888 353.316650,354.840576 
	C352.219452,355.839600 351.122284,356.838654 349.641846,357.856201 
z"/>
<path fill="#1C95AD" opacity="1.000000" stroke="none" 
	d="
M52.378181,342.993713 
	C52.361179,339.344025 52.130852,336.160553 52.475784,333.040710 
	C52.668079,331.301483 53.817303,329.668030 54.535294,327.986908 
	C55.624447,329.359375 56.713593,330.731842 57.881256,332.203247 
	C60.473263,328.328339 64.572586,326.673401 71.188278,328.817017 
	C69.486359,330.161926 68.420471,331.731323 67.313118,331.761169 
	C60.180679,331.953308 57.415550,334.391876 57.099537,341.624451 
	C56.925552,345.606476 57.269081,349.618042 56.960209,353.583618 
	C56.847397,355.032013 55.522362,356.386017 54.750343,357.783081 
	C53.962032,356.341003 52.649498,354.953339 52.492947,353.445648 
	C52.151608,350.158356 52.398651,346.809998 52.378181,342.993713 
z"/>
<path fill="#47AABD" opacity="1.000000" stroke="none" 
	d="
M130.911316,100.000305 
	C128.038422,96.841011 126.968559,93.401695 129.641220,90.359589 
	C131.157806,88.633354 134.393250,86.901894 136.275574,87.392830 
	C138.671585,88.017738 141.421188,90.558395 142.244980,92.897682 
	C142.895935,94.746223 141.095963,97.653481 139.959534,99.872993 
	C139.073990,101.602493 137.534683,102.997238 134.147842,105.445984 
	C133.152878,103.719513 132.157913,101.993042 130.911316,100.000305 
z"/>
<path fill="#299CB2" opacity="1.000000" stroke="none" 
	d="
M276.952332,318.352783 
	C278.187103,317.053772 279.409943,316.218353 281.788757,314.593170 
	C281.788757,325.887543 281.788666,335.475830 281.788849,345.064117 
	C281.788879,347.720856 282.076202,350.420471 281.687469,353.018982 
	C281.436981,354.693451 280.194763,356.219543 279.397003,357.812134 
	C278.577667,356.270782 277.075439,354.741394 277.048096,353.186127 
	C276.846771,341.732422 276.939941,330.273560 276.952332,318.352783 
M280.019531,322.799103 
	C280.019531,321.211853 280.019531,319.624634 280.019531,318.037384 
	C279.768219,318.040009 279.516937,318.042633 279.265625,318.045258 
	C279.265625,330.340363 279.265625,342.635468 279.265625,354.930573 
	C279.516937,354.932617 279.768219,354.934692 280.019531,354.936737 
	C280.019531,344.532837 280.019531,334.128937 280.019531,322.799103 
z"/>
<path fill="#0A8EA7" opacity="1.000000" stroke="none" 
	d="
M193.821762,151.275986 
	C192.995804,151.913986 191.714905,152.924606 190.431122,152.928284 
	C162.275574,153.009186 134.119705,152.980377 105.963913,152.951767 
	C105.489647,152.951294 105.015633,152.694244 104.256912,152.244385 
	C107.114220,151.668518 110.255707,151.182617 113.398064,151.176880 
	C140.053772,151.128235 166.709641,151.167038 193.821762,151.275986 
z"/>
<path fill="#269AB1" opacity="1.000000" stroke="none" 
	d="
M252.792328,10.592671 
	C217.972305,11.000559 182.975998,11.009592 147.514648,11.003393 
	C148.006256,10.632374 148.962494,9.966964 149.919662,9.965579 
	C183.663696,9.916763 217.407806,9.929201 251.151917,9.945774 
	C251.639999,9.946014 252.128006,10.107555 252.792328,10.592671 
z"/>
<path fill="#00819D" opacity="1.000000" stroke="none" 
	d="
M372.498657,10.047294 
	C371.548126,10.424518 370.139435,10.961604 368.730072,10.963373 
	C339.365112,11.000239 310.000092,10.976437 280.142456,10.937346 
	C281.189667,10.583233 282.729034,9.973816 284.269348,9.971330 
	C313.526215,9.924082 342.783234,9.948413 372.498657,10.047294 
z"/>
<path fill="#0A8EA7" opacity="1.000000" stroke="none" 
	d="
M151.866119,356.079407 
	C151.481384,347.410858 151.399643,338.540710 151.593521,329.366089 
	C151.969131,338.000336 152.069138,346.939087 151.866119,356.079407 
z"/>
<path fill="#299CB2" opacity="1.000000" stroke="none" 
	d="
M324.516724,235.948746 
	C322.269165,236.367798 319.568207,236.912033 316.859406,236.954208 
	C309.439026,237.069748 302.015381,236.974121 294.092224,236.939102 
	C295.125671,236.547623 296.656677,235.877151 298.194733,235.860672 
	C306.815460,235.768158 315.437897,235.833450 324.516724,235.948746 
z"/>
<path fill="#0589A3" opacity="1.000000" stroke="none" 
	d="
M368.807892,356.830109 
	C369.439636,354.886169 370.667908,353.311737 370.893341,351.604858 
	C371.427734,347.557983 371.486511,343.448334 372.078979,339.221497 
	C372.461365,344.018982 372.583618,348.960297 372.505402,353.898407 
	C372.471771,356.022614 372.492188,358.661194 368.807892,356.830109 
z"/>
<path fill="#0A8EA7" opacity="1.000000" stroke="none" 
	d="
M188.917389,356.280884 
	C189.784210,356.139679 190.696060,356.311432 191.818115,356.766785 
	C191.006332,356.898224 189.984375,356.746033 188.917389,356.280884 
z"/>
<path fill="#0A8EA7" opacity="1.000000" stroke="none" 
	d="
M188.696426,347.294739 
	C188.980499,348.154694 189.187881,349.437134 189.084396,350.928650 
	C188.722260,349.997559 188.670990,348.857422 188.696426,347.294739 
z"/>
<path fill="#0A8EA7" opacity="1.000000" stroke="none" 
	d="
M149.134216,357.286804 
	C149.594467,356.807953 150.217987,356.554688 151.152679,356.526794 
	C150.741730,357.005615 150.019592,357.259003 149.134216,357.286804 
z"/>
<path fill="#0589A3" opacity="1.000000" stroke="none" 
	d="
M368.713409,316.059631 
	C368.918945,316.380280 368.765381,316.619720 368.315552,316.881836 
	C368.226410,316.657074 368.338104,316.348389 368.713409,316.059631 
z"/>
<path fill="#0A8EA7" opacity="1.000000" stroke="none" 
	d="
M188.556213,337.108002 
	C188.776352,337.125641 188.981766,337.491150 188.963760,337.989929 
	C188.674042,337.900787 188.607758,337.678314 188.556213,337.108002 
z"/>
<path fill="#0A8EA7" opacity="1.000000" stroke="none" 
	d="
M188.710541,341.203247 
	C188.911453,341.230469 189.051849,341.557648 188.981781,341.994049 
	C188.730896,341.903259 188.690460,341.703247 188.710541,341.203247 
z"/>
<path fill="#0589A3" opacity="1.000000" stroke="none" 
	d="
M368.076660,355.316406 
	C368.333679,355.267426 368.559296,355.503601 368.773438,355.996643 
	C368.523071,356.036163 368.284180,355.818848 368.076660,355.316406 
z"/>
<path fill="#F4FAFB" opacity="1.000000" stroke="none" 
	d="
M142.079269,186.947800 
	C140.212357,190.607849 137.307022,192.830582 133.905273,191.102890 
	C131.528793,189.895905 128.899872,186.815063 128.709396,184.388626 
	C128.542511,182.262741 131.189621,179.136276 133.404480,177.870590 
	C134.943039,176.991364 138.699829,177.764374 139.941177,179.157532 
	C141.501648,180.908829 141.505814,184.046844 142.079269,186.947800 
z"/>
<path fill="#FBFDFE" opacity="1.000000" stroke="none" 
	d="
M106.918633,343.744934 
	C106.266327,349.007782 103.957184,353.238068 99.013229,353.595306 
	C95.945267,353.816925 91.774544,352.032379 89.701210,349.714783 
	C86.439095,346.068359 86.466934,340.757721 89.147339,336.720520 
	C90.710251,334.366486 94.337799,332.039124 96.975769,332.105591 
	C99.846893,332.177979 103.074303,334.607361 105.319901,336.840271 
	C106.675201,338.187866 106.457703,341.117218 106.918633,343.744934 
z"/>
<path fill="#EBF6F8" opacity="1.000000" stroke="none" 
	d="
M429.542633,339.172913 
	C423.749481,340.089111 418.084290,340.639954 412.079803,341.223785 
	C411.767609,335.729553 414.187317,333.140869 418.247040,332.039154 
	C423.644684,330.574249 427.317261,332.874359 429.542633,339.172913 
z"/>
<path fill="#FBFDFE" opacity="1.000000" stroke="none" 
	d="
M313.427887,332.004822 
	C318.032349,333.491943 320.289551,336.576660 320.912903,340.812378 
	C321.936890,347.770355 317.622314,353.630890 311.388550,353.981598 
	C305.256622,354.326538 300.702209,349.705597 300.563721,342.998657 
	C300.411011,335.603119 305.019623,331.513672 313.427887,332.004822 
z"/>
<path fill="#FBFDFE" opacity="1.000000" stroke="none" 
	d="
M138.017639,331.749939 
	C142.983337,331.863251 145.892075,334.261993 147.236160,338.452911 
	C148.686539,342.975220 148.255814,347.317596 144.900406,350.954834 
	C140.900635,355.290680 134.768463,355.057617 131.031128,350.542877 
	C125.348831,343.678650 128.954010,333.366150 138.017639,331.749939 
z"/>
<path fill="#1995AD" opacity="1.000000" stroke="none" 
	d="
M280.019531,323.262085 
	C280.019531,334.128937 280.019531,344.532837 280.019531,354.936737 
	C279.768219,354.934692 279.516937,354.932617 279.265625,354.930573 
	C279.265625,342.635468 279.265625,330.340363 279.265625,318.045258 
	C279.516937,318.042633 279.768219,318.040009 280.019531,318.037384 
	C280.019531,319.624634 280.019531,321.211853 280.019531,323.262085 
z"/>
</svg>